<svg id="Layer_1" enable-background="new 0 0 511.333 511.333" height="512" viewBox="0 0 511.333 511.333" width="512" xmlns="http://www.w3.org/2000/svg"><path d="m85 116.667h341.333c11.598 0 21-9.402 21-21s-9.402-21-21-21h-341.333c-11.598 0-21 9.402-21 21s9.402 21 21 21z"/><path d="m117 42h277.333c11.598 0 21-9.402 21-21s-9.402-21-21-21h-277.333c-11.598 0-21 9.402-21 21s9.402 21 21 21z"/><path d="m430.94 149.333h-350.546c-44.066 0-78.201 38.845-72.36 82.648l28.8 216c4.816 36.116 35.924 63.352 72.36 63.352h292.946c36.436 0 67.544-27.235 72.36-63.352l28.8-216c5.835-43.761-28.256-82.648-72.36-82.648zm-81.824 147.725c-5.188 10.374-17.801 14.578-28.175 9.392l-33.608-16.805v94.021c0 35.106-28.561 63.667-63.666 63.667s-63.667-28.561-63.667-63.666 28.561-63.667 63.667-63.667h21.667v-64.333c0-15.609 16.46-25.75 30.392-18.783l64 32c10.372 5.186 14.577 17.801 9.39 28.174z"/></svg>